<?xml version="1.0" encoding="utf-8"?>
<!-- Generator: Adobe Illustrator 24.1.2, SVG Export Plug-In . SVG Version: 6.00 Build 0)  -->
<svg version="1.1" id="Layer_1" xmlns="http://www.w3.org/2000/svg" xmlns:xlink="http://www.w3.org/1999/xlink" x="0px" y="0px"
	 viewBox="0 0 199.8 165.6" style="enable-background:new 0 0 199.8 165.6;" xml:space="preserve">
<style type="text/css">
	.st0{fill:#FFFFFF;}
	.st1{fill:#00ADFF;}
	.st2{fill:#F05245;}
	.st3{fill:#1CEBCF;}
	.st4{fill:#FFE300;}
</style>
<g>
	<g>
		<g>
			<path class="st0" d="M27.8,138c-3.4,3.6-3.4,3.6-3.4,3.6c-2.3-2.4-4.9-3.6-8.3-3.6c-6,0-10.5,4.7-10.5,11.3S10,160.7,16,160.7
				c3.4,0,6.4-1.5,8.5-3.6c3.2,3.6,3.2,3.6,3.2,3.6c-2.8,3.2-6.8,4.9-11.5,4.9c-9.8,0-16.2-7.1-16.2-16.2c0-9.4,6.4-16.4,16.2-16.4
				C20.9,132.9,25,134.8,27.8,138L27.8,138z"/>
			<path class="st0" d="M66.2,149.4c0,9.2-7,16.2-16.5,16.2c-9.6,0-16.7-7.1-16.7-16.2c0-9.4,7.1-16.4,16.7-16.4
				C59.2,132.9,66.2,140,66.2,149.4L66.2,149.4z M38.7,149.4c0,6.6,4.7,11.3,11.1,11.3c6.2,0,10.9-4.7,10.9-11.3
				c0-6.6-4.7-11.3-10.9-11.3C43.4,138,38.7,142.7,38.7,149.4L38.7,149.4z"/>
			<polygon class="st0" points="89.3,165 82.9,165 69.6,133.8 75.6,133.8 86.1,159.6 96.6,133.8 102.3,133.8 			"/>
			<path class="st0" d="M136.1,149.2c0,0.9,0,1.5,0,2.1c-24.6,0-24.6,0-24.6,0c0.6,6.4,5.1,9.6,10.5,9.6c3.9,0,7.1-1.3,9.8-3.6
				c2.8,3.6,2.8,3.6,2.8,3.6c-3.9,3.6-8.1,4.7-12.8,4.7c-9.4,0-16-6.4-16-16.2c0-9.6,6.6-16.4,15.6-16.4
				C129.9,132.9,136.1,139.8,136.1,149.2L136.1,149.2z M111.5,146.8c19.2,0,19.2,0,19.2,0c-0.6-5.3-4.3-9-9.4-9
				C115.8,137.8,112.4,141.5,111.5,146.8L111.5,146.8z"/>
			<path class="st0" d="M176.2,149.4c0,9.2-7.1,16.2-16.4,16.2c-9.6,0-16.7-7.1-16.7-16.2c0-9.4,7.1-16.4,16.7-16.4
				C169.2,132.9,176.2,140,176.2,149.4L176.2,149.4z M148.7,149.4c0,6.6,4.7,11.3,11.1,11.3c6.2,0,10.9-4.7,10.9-11.3
				c0-6.6-4.7-11.3-10.9-11.3C153.4,138,148.7,142.7,148.7,149.4L148.7,149.4z"/>
		</g>
		<g>
			<polyline class="st0" points="189.1,133.8 182.7,133.8 182.7,135.1 185.2,135.1 185.2,142.9 186.6,142.9 186.6,135.1 
				189.1,135.1 189.1,133.8 			"/>
			<polyline class="st0" points="199.8,133.8 198.5,133.8 195.9,139.5 193.2,133.8 191.9,133.8 191.9,142.9 193.2,142.9 
				193.2,136.8 195.4,141.2 196.4,141.2 198.5,136.8 198.5,142.9 199.8,142.9 199.8,133.8 			"/>
		</g>
	</g>
	<g>
		<path class="st1" d="M124.7,15c-8.9-8.9-20.3-13.9-31.9-15c-1.4-0.1-2.2,1.6-1.2,2.6l18.7,18.7c0.1,0.1,0,0.3-0.2,0.2
			c-5.3-3.9-11.5-6.1-17.8-6.7c-1-0.1-1.5,1.1-0.8,1.8l12.7,12.7c0.1,0.1,0,0.3-0.2,0.2c-3.5-2.4-7.5-3.8-11.6-4.2
			c-0.7-0.1-1.1,0.8-0.6,1.2l21.7,21.7c0.5,0.5,1.3,0.1,1.2-0.6c-0.4-4.1-1.8-8.1-4.2-11.6c-0.1-0.1,0.1-0.3,0.2-0.2L123,48.2
			c0.7,0.7,1.9,0.2,1.8-0.8c-0.6-6.3-2.8-12.4-6.7-17.8c-0.1-0.1,0.1-0.3,0.2-0.2l18.7,18.7c1,1,2.7,0.2,2.6-1.2
			C138.6,35.2,133.6,23.9,124.7,15"/>
		<path class="st2" d="M51.4,15C60.3,6.1,71.7,1.1,83.3,0c1.4-0.1,2.2,1.6,1.2,2.6L65.9,21.3c-0.1,0.1,0,0.3,0.2,0.2
			c5.3-3.9,11.5-6.1,17.8-6.7c1-0.1,1.5,1.1,0.8,1.8L71.9,29.4c-0.1,0.1,0,0.3,0.2,0.2c3.5-2.4,7.5-3.8,11.6-4.2
			c0.7-0.1,1.1,0.8,0.6,1.2L62.6,48.3c-0.5,0.5-1.3,0.1-1.2-0.6c0.4-4.1,1.8-8.1,4.2-11.6c0.1-0.1-0.1-0.3-0.2-0.2L53.1,48.2
			c-0.7,0.7-1.9,0.2-1.8-0.8c0.6-6.3,2.8-12.4,6.7-17.8c0.1-0.1-0.1-0.3-0.2-0.2L39,48.1c-1,1-2.7,0.2-2.6-1.2
			C37.5,35.2,42.5,23.9,51.4,15"/>
		<path class="st3" d="M51.4,88.8c8.9,8.9,20.3,13.9,31.9,15c1.4,0.1,2.2-1.6,1.2-2.6L65.9,82.5c-0.1-0.1,0-0.3,0.2-0.2
			c5.3,3.9,11.5,6.1,17.8,6.7c1,0.1,1.5-1.1,0.8-1.8L71.9,74.4c-0.1-0.1,0-0.3,0.2-0.2c3.5,2.4,7.5,3.8,11.6,4.2
			c0.7,0.1,1.1-0.8,0.6-1.2L62.6,55.5c-0.5-0.5-1.3-0.1-1.2,0.6c0.4,4.1,1.8,8.1,4.2,11.6c0.1,0.1-0.1,0.3-0.2,0.2L53.1,55.6
			c-0.7-0.7-1.9-0.2-1.8,0.8c0.6,6.3,2.8,12.5,6.7,17.8c0.1,0.1-0.1,0.3-0.2,0.2L39.1,55.7c-1-1-2.7-0.2-2.6,1.2
			C37.5,68.6,42.5,79.9,51.4,88.8"/>
		<path class="st4" d="M124.7,88.8c-8.9,8.9-20.3,13.9-31.9,15c-1.4,0.1-2.2-1.6-1.2-2.6l18.7-18.7c0.1-0.1,0-0.3-0.2-0.2
			c-5.3,3.9-11.5,6.1-17.8,6.7c-1,0.1-1.5-1.1-0.8-1.8l12.7-12.7c0.1-0.1,0-0.3-0.2-0.2c-3.5,2.4-7.5,3.8-11.6,4.2
			c-0.7,0.1-1.1-0.8-0.6-1.2l21.7-21.7c0.5-0.5,1.3-0.1,1.2,0.6c-0.4,4.1-1.8,8.1-4.2,11.6c-0.1,0.1,0.1,0.3,0.2,0.2L123,55.6
			c0.7-0.7,1.9-0.2,1.8,0.8c-0.6,6.3-2.8,12.5-6.7,17.8c-0.1,0.1,0.1,0.3,0.2,0.2l18.7-18.7c1-1,2.7-0.2,2.6,1.2
			C138.6,68.6,133.6,79.9,124.7,88.8"/>
	</g>
</g>
</svg>
